<svg xmlns="http://www.w3.org/2000/svg" viewBox="0 0 452 452">
  <title>business-round</title>
  <g id="3280ca82-254e-463b-bfac-6f2a1cf2758c" data-name="Layer 2">
    <g id="71e1a45c-1253-403a-a349-9f2f8019eb8e" data-name="Layer 4">
      <path d="M226,0C101.18,0,0,101.18,0,226S101.18,452,226,452,452,350.82,452,226,350.82,0,226,0Zm.61,68c37.69.32,69.58,32.21,69.9,69.9A70.51,70.51,0,0,1,225.39,209c-37.69-.32-69.58-32.21-69.9-69.9A70.51,70.51,0,0,1,226.61,68ZM349.4,350H102.6V300.67A73.91,73.91,0,0,1,173.22,227L199.56,332.4l17.63-74.92-17.63-30.85h52.89l-17.63,30.85,17.63,74.92L278.78,227a73.91,73.91,0,0,1,70.62,73.71Z" style="fill: #87c232"/>
    </g>
  </g>
</svg>
