<svg xmlns="http://www.w3.org/2000/svg" viewBox="0 0 452 452">
  <title>invest-round</title>
  <g id="cc535c64-7ed6-4beb-80f2-52cac053956b" data-name="Layer 2">
    <g id="2fd72f13-9847-4c3b-88fb-fabacd458b10" data-name="Layer 3">
      <path d="M226,0C101.18,0,0,101.18,0,226S101.18,452,226,452,452,350.82,452,226,350.82,0,226,0Zm16.53,78.85c35.22.3,65,30.09,65.31,65.31a65.88,65.88,0,0,1-66.45,66.45c-35.22-.3-65-30.09-65.31-65.31A65.88,65.88,0,0,1,242.53,78.85ZM85.2,189.94V173.53h22.42c9.76,0,16-5.26,17.46-13.69H85.2V144.89h37c-3-4-7.86-6.36-14.24-6.36H85.2V122.47h74.72v14.94H140.09a32,32,0,0,1,3.33,7.47h16.51v14.94H144.79c-1.68,17.4-14.44,29.32-32.3,29.87L153,227.09H125.45Zm272,152.45H126.66V296.27a69.06,69.06,0,0,1,66-68.87l24.6,98.52,16.47-70-16.47-28.82h49.41l-16.47,28.82,16.47,70,24.6-98.52a69.06,69.06,0,0,1,66,68.87Z" style="fill: #87c232"/>
    </g>
  </g>
</svg>
