<svg xmlns="http://www.w3.org/2000/svg" viewBox="0 0 361.45 126.66"><title>icon</title><g id="c0e14d80-c1df-4de8-965b-8d001d3bd66a" data-name="Layer 2"><g id="ca2a8846-6f08-48a0-a9a0-33c4bcafb633" data-name="Layer 1"><path d="M57.93,99.73H11.7q0,5.89,16.59,5.89,1.09,0,2.63,0l2,0v9.95H24.66q-14.09,0-19.27-4Q0,107.34,0,101.53V86.77q0-7.56,7.9-11.2a34.27,34.27,0,0,1,14.5-2.76H38.87a27.28,27.28,0,0,1,12.41,2.63q6.65,3.3,6.65,9.74ZM46.81,89.57V86.31q0-3.68-9.28-3.68H21.06q-9.74,0-9.74,3.59v3.34Z" style="fill:#222629"/><path d="M229.4,115.24H217.49V80.64L192.05,112a8.88,8.88,0,0,1-13.94,0l-25.9-31.56V115.2l-11.91,0V67.16a5.59,5.59,0,0,1,1.8-4.39,6.68,6.68,0,0,1,4.63-1.61A8.05,8.05,0,0,1,153.23,64l32,37.86L216.43,64a7.82,7.82,0,0,1,6.34-2.92,6.59,6.59,0,0,1,4.77,1.8,6.2,6.2,0,0,1,1.86,4.67Z" style="fill:#222629"/><path d="M291,113.67q0,8.27-8.69,11.2-5.18,1.8-15.54,1.8l-7.77,0v-9.69h11.78q8.65,0,8.86-1.71H254.56q-21.14,0-21.14-13.2V72.77h11.32V101.6q0,3.76,9.82,3.76h25.07V72.77H291Z" style="fill:#222629"/><path d="M361.45,100.23q0,8-7.37,11.95-5.81,3.05-14.58,3.05H295V61.08h43.35a47.63,47.63,0,0,1,10.42.89,18,18,0,0,1,9.07,4.92,12.46,12.46,0,0,1,3.6,8.9,25,25,0,0,1-.8,7.42,7.87,7.87,0,0,1-5,5q3,.72,4.62,5A19.8,19.8,0,0,1,361.45,100.23Zm-21.82-6.69H307v11.4h31.78q10,0,10.64-3.81a9.39,9.39,0,0,0,.17-2,16.4,16.4,0,0,0-.08-1.91Q349.08,93.53,339.63,93.53Zm9.83-13.94V75.36q0-4.07-10.17-4.07H307.17V83.24h33.26Q349.46,83.24,349.46,79.59Z" style="fill:#222629"/><rect x="233.42" y="116.93" width="21.5" height="9.61" style="fill:#87c240"/><rect x="37.88" y="105.57" width="20.05" height="9.61" style="fill:#87c240"/><path d="M41.86,47.74" style="fill:#628a3c;stroke:#628a3c;stroke-miterlimit:10;stroke-width:4px"/><path d="M100.14,81.42,78.32,61H61.95l36.22,34Z" style="fill:#87c240"/><path d="M100.16,96.73l19.74,18.44h16.37L108.35,89.09Z" style="fill:#87c240"/><path d="M165.24,49.44s4.32,1.78,6.86,7.71l1.27-2.54-3-5.67Z" style="fill:#628a3c"/><path d="M184.52,33.51c-1.63-4.51-5-7.49-9.11-9.61-6.35-3.24-13.25-4.24-20.25-4.57-3.29-.15-6.6,0-9.9,0a.83.83,0,0,1-.92-.57c-3-6.7-8.12-11.25-14.7-14.28A52.66,52.66,0,0,0,110,.14,94.48,94.48,0,0,0,91.41.92c-5.32.79-10.64,1.57-15.89,2.7A241.93,241.93,0,0,0,32.66,17.36c-2.18.92-4.33,1.91-6.59,2.9.15.05.18.07.2.07a431,431,0,0,1,44-10.46,202.78,202.78,0,0,1,27-3.11,89.8,89.8,0,0,1,16.85.77,44.69,44.69,0,0,1,12.06,3.36c5.33,2.42,9.45,6.07,11.76,11.54.57,1.34,1,2.75,1.43,4.13.12.34.18.63.69.58,2.53-.24,5.06-.45,7.6-.62A67.61,67.61,0,0,1,166,27.69a23.84,23.84,0,0,1,9.19,3.71c3.59,2.56,4.82,6.11,4.32,10.37a33.38,33.38,0,0,1-3.67,10.94c-.12.25-.29.48-.43.72-.14-.09-.2-.11-.22-.15-.13-.21-.25-.42-.36-.63a21,21,0,0,0-5.94-7,14.75,14.75,0,0,0-3.38-1.85l.31,0a16.43,16.43,0,0,0-8.35-2.15c-12.1-1.54-22.47,4.37-24.1,5.35l-.11,0h-.08L48.1,126.54H64.42l77.82-72.6a38.74,38.74,0,0,1,5.23-3.45c2.11-.84,13.21-4.81,21.56,1l1.17.81A24.37,24.37,0,0,1,172.79,59c.4,1.68.64,3.39,1,5.32,1.52-2.12,2.92-4,4.27-6a44.67,44.67,0,0,0,6.45-12.77A18.9,18.9,0,0,0,184.52,33.51Z" style="fill:#628a3c"/><path d="M120.55,22.44a9.21,9.21,0,0,1-3.3,3.13,6.83,6.83,0,0,1-3.3.87,6.74,6.74,0,0,1-3.3-.85,9.14,9.14,0,0,1-3.3-3.15,9.15,9.15,0,0,1,3.3-3.15,6.74,6.74,0,0,1,3.3-.85,6.84,6.84,0,0,1,3.3.87A9.22,9.22,0,0,1,120.55,22.44Z" style="fill:#628a3c"/></g></g></svg>